<svg width="190" height="112" viewBox="0 0 190 112" fill="none" xmlns="http://www.w3.org/2000/svg">
<path d="M1.98153 32V5.81818H8.30966V16.3267H18.6264V5.81818H24.9418V32H18.6264V21.4787H8.30966V32H1.98153ZM28.9112 32V12.3636H35.1626V32H28.9112ZM32.0433 10.0753C31.1655 10.0753 30.4112 9.78551 29.7805 9.20597C29.1499 8.6179 28.8345 7.91051 28.8345 7.08381C28.8345 6.26562 29.1499 5.56676 29.7805 4.98722C30.4112 4.39915 31.1655 4.10511 32.0433 4.10511C32.9297 4.10511 33.6839 4.39915 34.3061 4.98722C34.9368 5.56676 35.2521 6.26562 35.2521 7.08381C35.2521 7.91051 34.9368 8.6179 34.3061 9.20597C33.6839 9.78551 32.9297 10.0753 32.0433 10.0753ZM50.2255 12.3636V16.9659H37.8377V12.3636H50.2255ZM40.4329 7.65909H46.6843V25.8253C46.6843 26.2088 46.744 26.5199 46.8633 26.7585C46.9911 26.9886 47.1744 27.1548 47.413 27.2571C47.6516 27.3509 47.9371 27.3977 48.2695 27.3977C48.5082 27.3977 48.7596 27.3764 49.0238 27.3338C49.2965 27.2827 49.5011 27.2401 49.6374 27.206L50.5835 31.7188C50.2852 31.804 49.8633 31.9105 49.3178 32.0384C48.7809 32.1662 48.1374 32.2472 47.3874 32.2812C45.9215 32.3494 44.6644 32.179 43.6161 31.7699C42.5763 31.3523 41.7795 30.7045 41.2255 29.8267C40.68 28.9489 40.4158 27.8452 40.4329 26.5156V7.65909ZM66.0842 23.5241V12.3636H72.3228V32H66.3654V28.3438H66.1609C65.7262 29.5455 64.9847 30.5 63.9364 31.2074C62.8967 31.9062 61.6396 32.2557 60.1651 32.2557C58.8271 32.2557 57.6509 31.9489 56.6367 31.3352C55.6225 30.7216 54.8342 29.8651 54.2717 28.7656C53.7092 27.6577 53.4237 26.3622 53.4151 24.8793V12.3636H59.6665V23.652C59.6751 24.7173 59.9563 25.5568 60.5103 26.1705C61.0643 26.7841 61.8185 27.0909 62.7731 27.0909C63.3952 27.0909 63.9535 26.9545 64.4478 26.6818C64.9506 26.4006 65.3469 25.9957 65.6367 25.4673C65.935 24.9304 66.0842 24.2827 66.0842 23.5241ZM82.5533 20.8011V32H76.3018V12.3636H82.2464V15.9688H82.4638C82.8984 14.767 83.6399 13.8253 84.6882 13.1435C85.7365 12.4531 86.9851 12.108 88.4339 12.108C89.8146 12.108 91.0121 12.419 92.0263 13.0412C93.049 13.6548 93.8416 14.5156 94.4041 15.6236C94.9751 16.723 95.2564 18.0099 95.2479 19.4844V32H88.9964V20.7116C89.005 19.6207 88.728 18.7685 88.1655 18.1548C87.6115 17.5412 86.8402 17.2344 85.8516 17.2344C85.1953 17.2344 84.6158 17.3793 84.1129 17.669C83.6186 17.9503 83.2351 18.3551 82.9624 18.8835C82.6982 19.4119 82.5618 20.0511 82.5533 20.8011ZM108.272 39.7727C106.405 39.7727 104.807 39.5128 103.478 38.9929C102.148 38.473 101.104 37.7614 100.346 36.858C99.587 35.9545 99.131 34.9318 98.9776 33.7898L104.897 33.4574C105.007 33.858 105.212 34.2074 105.51 34.5057C105.817 34.804 106.213 35.0341 106.699 35.196C107.194 35.358 107.773 35.4389 108.438 35.4389C109.486 35.4389 110.351 35.1832 111.033 34.6719C111.723 34.169 112.069 33.2869 112.069 32.0256V28.5739H111.851C111.604 29.179 111.229 29.7202 110.726 30.1974C110.223 30.6747 109.597 31.0497 108.847 31.3224C108.105 31.5952 107.253 31.7315 106.29 31.7315C104.858 31.7315 103.546 31.3991 102.353 30.7344C101.168 30.0611 100.218 29.0213 99.5018 27.6151C98.7944 26.2003 98.4407 24.3807 98.4407 22.1562C98.4407 19.8636 98.8072 17.9759 99.5401 16.4929C100.273 15.0014 101.232 13.8977 102.417 13.1818C103.61 12.4659 104.892 12.108 106.265 12.108C107.296 12.108 108.178 12.2869 108.911 12.6449C109.652 12.9943 110.262 13.446 110.739 14C111.216 14.554 111.578 15.1293 111.826 15.7259H112.005V12.3636H118.23V32.0767C118.23 33.7386 117.813 35.1406 116.978 36.2827C116.142 37.4247 114.975 38.2898 113.475 38.8778C111.975 39.4744 110.24 39.7727 108.272 39.7727ZM108.463 27.1804C109.222 27.1804 109.87 26.9801 110.407 26.5795C110.944 26.179 111.357 25.6037 111.647 24.8537C111.936 24.1037 112.081 23.2045 112.081 22.1562C112.081 21.0909 111.936 20.1747 111.647 19.4077C111.365 18.6321 110.952 18.0355 110.407 17.6179C109.87 17.2003 109.222 16.9915 108.463 16.9915C107.688 16.9915 107.032 17.2045 106.495 17.6307C105.958 18.0568 105.549 18.6577 105.267 19.4332C104.995 20.2003 104.858 21.108 104.858 22.1562C104.858 23.2045 104.999 24.1037 105.28 24.8537C105.561 25.6037 105.966 26.179 106.495 26.5795C107.032 26.9801 107.688 27.1804 108.463 27.1804ZM1.98153 69V42.8182H8.30966V53.3267H18.6264V42.8182H24.9418V69H18.6264V58.4787H8.30966V69H1.98153ZM34.4467 69.3324C33.1939 69.3324 32.0817 69.1236 31.1101 68.706C30.147 68.2798 29.3842 67.6406 28.8217 66.7884C28.2678 65.9276 27.9908 64.8494 27.9908 63.554C27.9908 62.4631 28.1825 61.5426 28.5661 60.7926C28.9496 60.0426 29.478 59.4332 30.1513 58.9645C30.8246 58.4957 31.6001 58.142 32.478 57.9034C33.3558 57.6562 34.2933 57.4901 35.2905 57.4048C36.407 57.3026 37.3061 57.196 37.9879 57.0852C38.6697 56.9659 39.1641 56.7997 39.4709 56.5866C39.7862 56.3651 39.9439 56.054 39.9439 55.6534V55.5895C39.9439 54.9332 39.718 54.4261 39.2663 54.0682C38.8146 53.7102 38.2053 53.5312 37.4382 53.5312C36.6115 53.5312 35.9467 53.7102 35.4439 54.0682C34.9411 54.4261 34.6214 54.9205 34.4851 55.5511L28.7195 55.3466C28.8899 54.1534 29.3288 53.0881 30.0362 52.1506C30.7521 51.2045 31.7322 50.4631 32.9766 49.9261C34.2294 49.3807 35.7337 49.108 37.4893 49.108C38.7422 49.108 39.897 49.2571 40.9538 49.5554C42.0107 49.8452 42.9311 50.2713 43.7152 50.8338C44.4993 51.3878 45.1044 52.0696 45.5305 52.8793C45.9652 53.6889 46.1825 54.6136 46.1825 55.6534V69H40.3018V66.2642H40.1484C39.799 66.929 39.3516 67.4915 38.8061 67.9517C38.2692 68.4119 37.6342 68.7571 36.9013 68.9872C36.1768 69.2173 35.3587 69.3324 34.4467 69.3324ZM36.3771 65.2415C37.0504 65.2415 37.6555 65.1051 38.1925 64.8324C38.7379 64.5597 39.1726 64.1847 39.4964 63.7074C39.8203 63.2216 39.9822 62.6591 39.9822 62.0199V60.1534C39.8033 60.2472 39.5859 60.3324 39.3303 60.4091C39.0831 60.4858 38.8104 60.5582 38.5121 60.6264C38.2138 60.6946 37.907 60.7543 37.5916 60.8054C37.2763 60.8565 36.9737 60.9034 36.6839 60.946C36.0959 61.0398 35.593 61.1847 35.1754 61.3807C34.7663 61.5767 34.451 61.8324 34.2294 62.1477C34.0163 62.4545 33.9098 62.821 33.9098 63.2472C33.9098 63.8949 34.1399 64.3892 34.6001 64.7301C35.0689 65.071 35.6612 65.2415 36.3771 65.2415ZM50.005 69V49.3636H56.0774V52.9432H56.282C56.6399 51.6477 57.2237 50.6847 58.0334 50.054C58.843 49.4148 59.7848 49.0952 60.8587 49.0952C61.1484 49.0952 61.4467 49.1165 61.7536 49.1591C62.0604 49.1932 62.3459 49.2486 62.6101 49.3253V54.7585C62.3118 54.6562 61.9197 54.5753 61.4339 54.5156C60.9567 54.456 60.5305 54.4261 60.1555 54.4261C59.4141 54.4261 58.745 54.5923 58.1484 54.9247C57.5604 55.2486 57.0959 55.7045 56.755 56.2926C56.4226 56.8722 56.2564 57.554 56.2564 58.3381V69H50.005ZM73.2912 76.7727C71.4247 76.7727 69.8267 76.5128 68.4972 75.9929C67.1676 75.473 66.1236 74.7614 65.3651 73.858C64.6065 72.9545 64.1506 71.9318 63.9972 70.7898L69.9162 70.4574C70.027 70.858 70.2315 71.2074 70.5298 71.5057C70.8366 71.804 71.233 72.0341 71.7188 72.196C72.2131 72.358 72.7926 72.4389 73.4574 72.4389C74.5057 72.4389 75.3707 72.1832 76.0526 71.6719C76.7429 71.169 77.0881 70.2869 77.0881 69.0256V65.5739H76.8707C76.6236 66.179 76.2486 66.7202 75.7457 67.1974C75.2429 67.6747 74.6165 68.0497 73.8665 68.3224C73.125 68.5952 72.2727 68.7315 71.3097 68.7315C69.8778 68.7315 68.5653 68.3991 67.3722 67.7344C66.1875 67.0611 65.2372 66.0213 64.5213 64.6151C63.8139 63.2003 63.4602 61.3807 63.4602 59.1562C63.4602 56.8636 63.8267 54.9759 64.5597 53.4929C65.2926 52.0014 66.2514 50.8977 67.4361 50.1818C68.6293 49.4659 69.9119 49.108 71.2841 49.108C72.3153 49.108 73.1974 49.2869 73.9304 49.6449C74.6719 49.9943 75.2813 50.446 75.7585 51C76.2358 51.554 76.598 52.1293 76.8452 52.7259H77.0241V49.3636H83.25V69.0767C83.25 70.7386 82.8324 72.1406 81.9972 73.2827C81.1619 74.4247 79.9943 75.2898 78.4943 75.8778C76.9943 76.4744 75.2599 76.7727 73.2912 76.7727ZM73.483 64.1804C74.2415 64.1804 74.8892 63.9801 75.4261 63.5795C75.9631 63.179 76.3764 62.6037 76.6662 61.8537C76.956 61.1037 77.1009 60.2045 77.1009 59.1562C77.1009 58.0909 76.956 57.1747 76.6662 56.4077C76.3849 55.6321 75.9716 55.0355 75.4261 54.6179C74.8892 54.2003 74.2415 53.9915 73.483 53.9915C72.7074 53.9915 72.0511 54.2045 71.5142 54.6307C70.9773 55.0568 70.5682 55.6577 70.2869 56.4332C70.0142 57.2003 69.8778 58.108 69.8778 59.1562C69.8778 60.2045 70.0185 61.1037 70.2997 61.8537C70.581 62.6037 70.9858 63.179 71.5142 63.5795C72.0511 63.9801 72.7074 64.1804 73.483 64.1804ZM92.771 69.3324C91.5181 69.3324 90.4059 69.1236 89.4343 68.706C88.4712 68.2798 87.7085 67.6406 87.146 66.7884C86.592 65.9276 86.315 64.8494 86.315 63.554C86.315 62.4631 86.5067 61.5426 86.8903 60.7926C87.2738 60.0426 87.8022 59.4332 88.4755 58.9645C89.1488 58.4957 89.9244 58.142 90.8022 57.9034C91.68 57.6562 92.6175 57.4901 93.6147 57.4048C94.7312 57.3026 95.6303 57.196 96.3121 57.0852C96.994 56.9659 97.4883 56.7997 97.7951 56.5866C98.1104 56.3651 98.2681 56.054 98.2681 55.6534V55.5895C98.2681 54.9332 98.0423 54.4261 97.5906 54.0682C97.1388 53.7102 96.5295 53.5312 95.7624 53.5312C94.9357 53.5312 94.271 53.7102 93.7681 54.0682C93.2653 54.4261 92.9457 54.9205 92.8093 55.5511L87.0437 55.3466C87.2141 54.1534 87.6531 53.0881 88.3604 52.1506C89.0763 51.2045 90.0565 50.4631 91.3008 49.9261C92.5536 49.3807 94.0579 49.108 95.8136 49.108C97.0664 49.108 98.2212 49.2571 99.2781 49.5554C100.335 49.8452 101.255 50.2713 102.039 50.8338C102.824 51.3878 103.429 52.0696 103.855 52.8793C104.289 53.6889 104.507 54.6136 104.507 55.6534V69H98.6261V66.2642H98.4727C98.1232 66.929 97.6758 67.4915 97.1303 67.9517C96.5934 68.4119 95.9585 68.7571 95.2255 68.9872C94.5011 69.2173 93.6829 69.3324 92.771 69.3324ZM94.7014 65.2415C95.3746 65.2415 95.9798 65.1051 96.5167 64.8324C97.0621 64.5597 97.4968 64.1847 97.8207 63.7074C98.1445 63.2216 98.3065 62.6591 98.3065 62.0199V60.1534C98.1275 60.2472 97.9102 60.3324 97.6545 60.4091C97.4073 60.4858 97.1346 60.5582 96.8363 60.6264C96.538 60.6946 96.2312 60.7543 95.9158 60.8054C95.6005 60.8565 95.2979 60.9034 95.0082 60.946C94.4201 61.0398 93.9173 61.1847 93.4996 61.3807C93.0906 61.5767 92.7752 61.8324 92.5536 62.1477C92.3406 62.4545 92.234 62.821 92.234 63.2472C92.234 63.8949 92.4641 64.3892 92.9244 64.7301C93.3931 65.071 93.9854 65.2415 94.7014 65.2415ZM126.7 42.8182H132.939V60.9205C132.93 62.6165 132.525 64.0994 131.724 65.3693C130.923 66.6307 129.815 67.6108 128.4 68.3097C126.994 69.0085 125.366 69.358 123.517 69.358C121.88 69.358 120.393 69.0724 119.055 68.5014C117.725 67.9304 116.664 67.044 115.872 65.8423C115.088 64.6406 114.7 63.1023 114.708 61.2273H121.011C121.037 61.9006 121.164 62.4759 121.395 62.9531C121.633 63.4219 121.961 63.7756 122.379 64.0142C122.797 64.2528 123.295 64.3722 123.875 64.3722C124.48 64.3722 124.991 64.2443 125.409 63.9886C125.826 63.7244 126.142 63.3366 126.355 62.8253C126.576 62.3139 126.691 61.679 126.7 60.9205V42.8182ZM149.58 60.5241V49.3636H155.819V69H149.862V65.3438H149.657C149.222 66.5455 148.481 67.5 147.433 68.2074C146.393 68.9062 145.136 69.2557 143.661 69.2557C142.323 69.2557 141.147 68.9489 140.133 68.3352C139.119 67.7216 138.33 66.8651 137.768 65.7656C137.205 64.6577 136.92 63.3622 136.911 61.8793V49.3636H143.163V60.652C143.171 61.7173 143.452 62.5568 144.006 63.1705C144.56 63.7841 145.315 64.0909 146.269 64.0909C146.891 64.0909 147.45 63.9545 147.944 63.6818C148.447 63.4006 148.843 62.9957 149.133 62.4673C149.431 61.9304 149.58 61.2827 149.58 60.5241ZM165.333 69.3324C164.081 69.3324 162.968 69.1236 161.997 68.706C161.034 68.2798 160.271 67.6406 159.708 66.7884C159.154 65.9276 158.877 64.8494 158.877 63.554C158.877 62.4631 159.069 61.5426 159.453 60.7926C159.836 60.0426 160.365 59.4332 161.038 58.9645C161.711 58.4957 162.487 58.142 163.365 57.9034C164.243 57.6562 165.18 57.4901 166.177 57.4048C167.294 57.3026 168.193 57.196 168.875 57.0852C169.556 56.9659 170.051 56.7997 170.358 56.5866C170.673 56.3651 170.831 56.054 170.831 55.6534V55.5895C170.831 54.9332 170.605 54.4261 170.153 54.0682C169.701 53.7102 169.092 53.5312 168.325 53.5312C167.498 53.5312 166.833 53.7102 166.331 54.0682C165.828 54.4261 165.508 54.9205 165.372 55.5511L159.606 55.3466C159.777 54.1534 160.216 53.0881 160.923 52.1506C161.639 51.2045 162.619 50.4631 163.863 49.9261C165.116 49.3807 166.62 49.108 168.376 49.108C169.629 49.108 170.784 49.2571 171.841 49.5554C172.897 49.8452 173.818 50.2713 174.602 50.8338C175.386 51.3878 175.991 52.0696 176.417 52.8793C176.852 53.6889 177.069 54.6136 177.069 55.6534V69H171.189V66.2642H171.035C170.686 66.929 170.238 67.4915 169.693 67.9517C169.156 68.4119 168.521 68.7571 167.788 68.9872C167.064 69.2173 166.245 69.3324 165.333 69.3324ZM167.264 65.2415C167.937 65.2415 168.542 65.1051 169.079 64.8324C169.625 64.5597 170.059 64.1847 170.383 63.7074C170.707 63.2216 170.869 62.6591 170.869 62.0199V60.1534C170.69 60.2472 170.473 60.3324 170.217 60.4091C169.97 60.4858 169.697 60.5582 169.399 60.6264C169.1 60.6946 168.794 60.7543 168.478 60.8054C168.163 60.8565 167.86 60.9034 167.571 60.946C166.983 61.0398 166.48 61.1847 166.062 61.3807C165.653 61.5767 165.338 61.8324 165.116 62.1477C164.903 62.4545 164.797 62.821 164.797 63.2472C164.797 63.8949 165.027 64.3892 165.487 64.7301C165.956 65.071 166.548 65.2415 167.264 65.2415ZM187.143 42.8182V69H180.892V42.8182H187.143Z" fill="#219653"/>
<path d="M110.728 65C109.917 65 109.259 65.6579 109.259 66.4688V72.3438C109.259 73.1547 109.917 73.8126 110.728 73.8126C111.539 73.8126 112.197 73.1547 112.197 72.3438V66.4688C112.197 65.6579 111.539 65 110.728 65ZM99.3448 71.3646C98.8763 71.3838 98.446 71.6228 98.1974 72.099C97.7919 72.8009 98.031 73.6978 98.7329 74.1033L103.828 77.0408C104.529 77.4462 105.426 77.2072 105.832 76.5053C106.237 75.8034 105.998 74.9065 105.296 74.501L100.202 71.5635C99.9243 71.4258 99.626 71.3531 99.3448 71.3646V71.3646ZM122.065 71.3646C121.806 71.3589 121.535 71.4297 121.254 71.5635L116.159 74.501C115.457 74.9065 115.218 75.8034 115.624 76.5053C116.029 77.2072 116.926 77.4463 117.628 77.0408L122.723 74.1033C123.424 73.6979 123.663 72.8009 123.258 72.099C122.887 71.5846 122.493 71.3704 122.065 71.3647L122.065 71.3646ZM110.728 74.7917C108.312 74.7917 106.321 76.7826 106.321 79.198V90.1217C105.595 89.1482 104.803 88.4043 103.874 88.1481C102.6 87.7981 101.46 88.2532 100.691 88.6988C99.7618 89.437 98.9509 90.0108 98.6257 91.1927C98.3198 92.3076 98.5454 93.5068 99.0847 94.8952C101.667 101.078 104.791 107.074 108.647 111.495C108.92 111.809 109.331 111.998 109.748 112H122.967C123.279 112 123.589 111.895 123.839 111.709C125.373 110.573 126.519 108.732 127.481 106.569C128.443 104.406 129.169 101.898 129.546 99.4545C129.923 97.0105 129.952 94.593 129.393 92.6002C128.825 90.575 127.328 88.762 125.094 88.5C124.715 88.4885 124.308 88.5516 123.977 88.5917C123.688 88.0391 123.302 87.5934 122.876 87.2913C122.038 86.6966 121.21 86.5301 120.489 86.5417C119.972 86.5512 119.502 86.7252 119.051 86.97C118.869 86.7539 118.724 86.4785 118.515 86.3275C117.679 85.7212 116.821 85.5625 116.113 85.5625C115.778 85.5625 115.455 85.6141 115.134 85.6849V79.1978C115.134 76.7824 113.143 74.7916 110.728 74.7916L110.728 74.7917ZM110.728 77.7293C111.567 77.7293 112.197 78.3585 112.197 79.198V88.5002C112.197 89.1638 112.698 89.793 113.344 89.9383C113.99 90.0837 114.715 89.728 114.996 89.1275C115.53 88.4352 116.086 88.4505 116.786 88.6991C116.962 88.8272 117.092 88.8999 117.092 89.4794C117.092 90.1373 117.586 90.7665 118.225 90.9176C118.863 91.0686 119.584 90.7263 119.877 90.1373C120.259 89.3436 120.508 89.4411 121.177 89.6936C121.378 89.837 121.499 89.9058 121.499 90.4585C121.504 91.0227 121.868 91.5639 122.386 91.7896C122.904 92.0153 123.547 91.912 123.962 91.5295C123.977 91.5621 124.616 91.3555 124.849 91.4377C125.76 91.5754 126.205 92.0956 126.578 93.4114C126.964 94.775 126.989 96.8385 126.655 99.0113C126.32 101.184 125.631 103.479 124.788 105.376C124.021 107.097 123.099 108.384 122.34 109.063H110.483C107.744 105.355 101.427 95.3796 101.456 91.9887C101.854 91.3366 102.471 90.912 103.093 90.979C103.871 91.3729 104.066 91.7764 104.531 92.616L106.474 96.5021C106.767 97.0911 107.488 97.4335 108.126 97.2824C108.765 97.1314 109.261 96.5021 109.259 95.8443V79.1983C109.259 78.3588 109.888 77.7296 110.727 77.7296L110.728 77.7293Z" fill="#209351"/>
<rect y="80" width="95" height="29" rx="14.5" fill="#219653"/>
<path d="M28.8324 100.17C27.9801 100.17 27.2415 99.983 26.6165 99.608C25.9915 99.233 25.5066 98.7083 25.1619 98.0341C24.821 97.3598 24.6506 96.572 24.6506 95.6705C24.6506 94.7689 24.821 93.9792 25.1619 93.3011C25.5066 92.6231 25.9915 92.0966 26.6165 91.7216C27.2415 91.3466 27.9801 91.1591 28.8324 91.1591C29.6847 91.1591 30.4233 91.3466 31.0483 91.7216C31.6733 92.0966 32.1563 92.6231 32.4972 93.3011C32.8419 93.9792 33.0142 94.7689 33.0142 95.6705C33.0142 96.572 32.8419 97.3598 32.4972 98.0341C32.1563 98.7083 31.6733 99.233 31.0483 99.608C30.4233 99.983 29.6847 100.17 28.8324 100.17ZM28.8438 98.5227C29.3059 98.5227 29.6922 98.3958 30.0028 98.142C30.3134 97.8845 30.5445 97.5398 30.696 97.108C30.8513 96.6761 30.929 96.1951 30.929 95.6648C30.929 95.1307 30.8513 94.6477 30.696 94.2159C30.5445 93.7803 30.3134 93.4337 30.0028 93.1761C29.6922 92.9186 29.3059 92.7898 28.8438 92.7898C28.3703 92.7898 27.9763 92.9186 27.6619 93.1761C27.3513 93.4337 27.1184 93.7803 26.9631 94.2159C26.8116 94.6477 26.7358 95.1307 26.7358 95.6648C26.7358 96.1951 26.8116 96.6761 26.9631 97.108C27.1184 97.5398 27.3513 97.8845 27.6619 98.142C27.9763 98.3958 28.3703 98.5227 28.8438 98.5227ZM36.8168 94.8864V100H34.7599V91.2727H36.7259V92.7557H36.8281C37.0289 92.267 37.349 91.8788 37.7884 91.5909C38.2315 91.303 38.7789 91.1591 39.4304 91.1591C40.0327 91.1591 40.5573 91.2879 41.0043 91.5455C41.455 91.803 41.8035 92.1761 42.0497 92.6648C42.2997 93.1534 42.4228 93.7462 42.419 94.4432V100H40.3622V94.7614C40.3622 94.178 40.2107 93.7216 39.9077 93.392C39.6084 93.0625 39.1937 92.8977 38.6634 92.8977C38.3035 92.8977 37.9834 92.9773 37.7031 93.1364C37.4266 93.2917 37.2088 93.517 37.0497 93.8125C36.8944 94.108 36.8168 94.4659 36.8168 94.8864ZM46.5668 88.3636V100H44.5099V88.3636H46.5668ZM48.6818 100V91.2727H50.7386V100H48.6818ZM49.7159 90.0341C49.3902 90.0341 49.1098 89.9261 48.875 89.7102C48.6402 89.4905 48.5227 89.2273 48.5227 88.9205C48.5227 88.6098 48.6402 88.3466 48.875 88.1307C49.1098 87.911 49.3902 87.8011 49.7159 87.8011C50.0455 87.8011 50.3258 87.911 50.5568 88.1307C50.7917 88.3466 50.9091 88.6098 50.9091 88.9205C50.9091 89.2273 50.7917 89.4905 50.5568 89.7102C50.3258 89.9261 50.0455 90.0341 49.7159 90.0341ZM54.9105 94.8864V100H52.8537V91.2727H54.8196V92.7557H54.9219C55.1226 92.267 55.4427 91.8788 55.8821 91.5909C56.3253 91.303 56.8726 91.1591 57.5241 91.1591C58.1264 91.1591 58.651 91.2879 59.098 91.5455C59.5488 91.803 59.8973 92.1761 60.1435 92.6648C60.3935 93.1534 60.5166 93.7462 60.5128 94.4432V100H58.456V94.7614C58.456 94.178 58.3045 93.7216 58.0014 93.392C57.7022 93.0625 57.2874 92.8977 56.7571 92.8977C56.3973 92.8977 56.0772 92.9773 55.7969 93.1364C55.5204 93.2917 55.3026 93.517 55.1435 93.8125C54.9882 94.108 54.9105 94.4659 54.9105 94.8864ZM66.4673 100.17C65.5923 100.17 64.8366 99.9886 64.2003 99.625C63.5677 99.2576 63.081 98.7386 62.7401 98.0682C62.3991 97.3939 62.2287 96.6004 62.2287 95.6875C62.2287 94.7898 62.3991 94.0019 62.7401 93.3239C63.0848 92.642 63.5658 92.1117 64.1832 91.733C64.8007 91.3504 65.526 91.1591 66.3594 91.1591C66.8973 91.1591 67.4048 91.2462 67.8821 91.4205C68.3632 91.5909 68.7874 91.8561 69.1548 92.2159C69.526 92.5758 69.8177 93.0341 70.0298 93.5909C70.242 94.1439 70.348 94.803 70.348 95.5682V96.1989H63.1946V94.8125H68.3764C68.3726 94.4186 68.2874 94.0682 68.1207 93.7614C67.9541 93.4508 67.7211 93.2064 67.4219 93.0284C67.1264 92.8504 66.7817 92.7614 66.3878 92.7614C65.9673 92.7614 65.598 92.8636 65.2798 93.0682C64.9616 93.2689 64.7135 93.5341 64.5355 93.8636C64.3613 94.1894 64.2723 94.5473 64.2685 94.9375V96.1477C64.2685 96.6553 64.3613 97.0909 64.5469 97.4545C64.7325 97.8144 64.992 98.0909 65.3253 98.2841C65.6586 98.4735 66.0488 98.5682 66.4957 98.5682C66.795 98.5682 67.0658 98.5265 67.3082 98.4432C67.5507 98.3561 67.7609 98.2292 67.9389 98.0625C68.117 97.8958 68.2514 97.6894 68.3423 97.4432L70.2628 97.6591C70.1416 98.1667 69.9105 98.6098 69.5696 98.9886C69.2325 99.3636 68.8007 99.6553 68.2741 99.8636C67.7476 100.068 67.1454 100.17 66.4673 100.17Z" fill="white"/>
</svg>
