<svg width="24" height="33" viewBox="0 0 33 33" fill="none" xmlns="http://www.w3.org/2000/svg">
<path d="M16.9284 8.61906C12.3881 8.61906 8.72581 12.2813 8.72581 16.8216C8.72581 21.3619 12.3881 25.0242 16.9284 25.0242C21.4687 25.0242 25.1309 21.3619 25.1309 16.8216C25.1309 12.2813 21.4687 8.61906 16.9284 8.61906ZM16.9284 22.1544C13.9943 22.1544 11.5956 19.7628 11.5956 16.8216C11.5956 13.8804 13.9872 11.4889 16.9284 11.4889C19.8696 11.4889 22.2611 13.8804 22.2611 16.8216C22.2611 19.7628 19.8625 22.1544 16.9284 22.1544V22.1544ZM27.3797 8.28353C27.3797 9.34723 26.523 10.1968 25.4665 10.1968C24.4028 10.1968 23.5532 9.34009 23.5532 8.28353C23.5532 7.22698 24.4099 6.37032 25.4665 6.37032C26.523 6.37032 27.3797 7.22698 27.3797 8.28353ZM32.8124 10.2253C32.691 7.66245 32.1056 5.39229 30.2281 3.5219C28.3577 1.65152 26.0876 1.06613 23.5247 0.937633C20.8833 0.787716 12.9663 0.787716 10.3249 0.937633C7.7692 1.05899 5.49904 1.64438 3.62151 3.51477C1.74399 5.38515 1.16574 7.65531 1.03724 10.2182C0.887326 12.8596 0.887326 20.7766 1.03724 23.4179C1.1586 25.9808 1.74399 28.251 3.62151 30.1213C5.49904 31.9917 7.76206 32.5771 10.3249 32.7056C12.9663 32.8555 20.8833 32.8555 23.5247 32.7056C26.0876 32.5843 28.3577 31.9989 30.2281 30.1213C32.0985 28.251 32.6839 25.9808 32.8124 23.4179C32.9623 20.7766 32.9623 12.8667 32.8124 10.2253V10.2253ZM29.4 26.2521C28.8432 27.6513 27.7652 28.7293 26.3588 29.2932C24.2529 30.1285 19.2556 29.9357 16.9284 29.9357C14.6011 29.9357 9.59675 30.1213 7.49792 29.2932C6.0987 28.7364 5.02073 27.6584 4.45676 26.2521C3.62151 24.1461 3.81426 19.1489 3.81426 16.8216C3.81426 14.4944 3.62865 9.49 4.45676 7.39117C5.01359 5.99195 6.09156 4.91398 7.49792 4.35001C9.60389 3.51477 14.6011 3.70752 16.9284 3.70752C19.2556 3.70752 24.26 3.5219 26.3588 4.35001C27.758 4.90685 28.836 5.98482 29.4 7.39117C30.2352 9.49714 30.0425 14.4944 30.0425 16.8216C30.0425 19.1489 30.2352 24.1532 29.4 26.2521Z" fill="#828282"/>
</svg>
